<svg xmlns="http://www.w3.org/2000/svg" viewBox="0 0 400 400">
  <rect width="400" height="400" rx="50" fill="#3178c6"/>
  <path fill="#fff" fill-rule="evenodd" d="m150 200v-50h100v300h-50V200h-50zm100 0c0-27.6 22.4-50 50-50s50 22.4 50 50-22.4 50-50 50-50-22.4-50-50zm0 100c0-27.6 22.4-50 50-50s50 22.4 50 50-22.4 50-50 50-50-22.4-50-50z"/>
  <path fill="#fff" d="M225 200c0-13.8 11.2-25 25-25s25 11.2 25 25-11.2 25-25 25-25-11.2-25-25zm0 100c0-13.8 11.2-25 25-25s25 11.2 25 25-11.2 25-25 25-25-11.2-25-25z"/>
</svg>