<svg xmlns="http://www.w3.org/2000/svg" viewBox="0 0 512 512">
  <path fill="#4DB33D" d="M256 64C150 64 64 150 64 256s86 192 192 192 192-86 192-192S362 64 256 64z"/>
  <path fill="#3B8A3C" d="M256 64v384c106 0 192-86 192-192S362 64 256 64z"/>
  <path fill="#fff" d="M256 144c-47.9 0-86.8 38.9-86.8 86.8 0 48.2 34.6 88.4 80.4 97v26.4h12.8v-26.4c45.8-8.6 80.4-48.8 80.4-97 0-47.9-38.9-86.8-86.8-86.8zm0 26.6c33.1 0 60.2 27.1 60.2 60.2 0 33.1-27.1 60.2-60.2 60.2s-60.2-27.1-60.2-60.2c0-33.1 27.1-60.2 60.2-60.2z"/>
  <circle fill="#3B8A3C" cx="256" cy="230.8" r="33.6"/>
</svg>