<svg xmlns="http://www.w3.org/2000/svg" fill="none" viewBox="0 0 394 80">
  <path fill="#000" d="M262 0h68.5v12.7h-27.2v66.6h-13.6V12.7H262V0ZM149 0v12.7H94v20.4h44.3v12.6H94v21h55v12.6H80.5V0h68.7zm34.3 0h-17.8l63.8 79.4h17.9l-32-39.7 32-39.7h-17.9l-23 28.6-23-28.6zm18.3 56.7-9-11-27.1 33.7h17.8l18.3-22.7z"/>
  <path fill="#000" d="M81 79.3 17 0H0v79.3h13.6V17l50.2 62.3H81Zm252.6-.4c-1 0-1.8-.4-2.5-1s-1.1-1.6-1.1-2.6.3-1.8 1-2.5 1.6-1 2.6-1 1.8.3 2.5 1a3.4 3.4 0 0 1 .6 4.3 3.7 3.7 0 0 1-3 1.8zm23.2-33.5h6.2c.3 0 .6.1.8.3.2.2.3.4.3.7 0 .3-.2.7-.5.9a2 2 0 0 1-1.1.2h-5.7zm8.5-6.9c-.4-.2-.8-.3-1.4-.3H342c-.7 0-1.3.2-1.9.7-.5.4-.8 1-.8 1.6 0 .4.1.8.4 1.1.2.2.4.4.7.5l-.3.1c-.7.3-1.2.8-1.2 1.4 0 .5.4 1 1.2 1.1l-.2.5c-.2.5-.3 1.1-.3 1.6 0 .9.2 1.7.7 2.3.5.5 1.1.8 1.8.8.4 0 .7 0 1-.1.4-.1.7-.2 1-.4.4.3.9.4 1.4.4.5 0 1-.1 1.4-.4.4-.3.6-.7.6-1.2 0-.6-.2-1-.7-1.4-.4-.4-1-.5-1.7-.5-.3 0-.7.1-1.1.2-.4-.9-.5-1.4-.5-1.9 0-.6.2-1 .6-1.4.4-.3.8-.5 1.4-.5.5 0 1 .2 1.4.5.4.4.7.9.8 1.5h.9c-.1-.8-.4-1.5-.9-2-.6-.5-1.3-.7-2.2-.7-.9 0-1.7.3-2.3.8-.3.3-.5.7-.6 1.1-.1-.3-.3-.5-.5-.6z"/>
</svg>